<?xml version="1.0" encoding="UTF-8"?>
<svg version="1.1" viewBox="0 0 2048 1122" width="261" height="143" xmlns="http://www.w3.org/2000/svg">
<path transform="translate(1075,46)" d="m0 0 3 1 5 11 11 28 12 28 13 32 19 46 15 37 17 41 12 29 16 39 17 41 20 49 22 52 11 28 9 21-1 3h-143l-5-5-16-38-3-6-21-1h-179l-2 49-5 1h-137l-1-6v-368l2-5 12-1h104l20 1 5 3 1 284 5-8 8-18 19-45 8-19 17-42 15-36 14-34 9-21 26-65 15-36 13-32 14-32 3-5zm0 43-8 16-16 38-17 40-15 37 1 5 6 14 13 31 17 40 16 39 18 44 22 55 8 16 2 2h109l-3-10-14-36-19-46-16-39-15-37-15-36-18-44-32-78-12-28-8-18zm-281 78-12 1-1 12v338h41l56-1 5-6 4-10 3-16 1-12v-56l-1-248-4-2zm216 78-7 14-19 46-19 45-17 41-14 33-13 32-3 7v3h183l-3-10-8-22-30-72-16-39-19-47-9-21-5-10zm130 236-12 1 1 6 10 25 4 4h110l-1-6-10-25-3-4-8-1z" fill="#0A0A0A"/>
<path transform="translate(399,950)" d="m0 0h14l5 3 12 17 21 31 5 4 8-10 14-21 13-17 8-7h12l3 2v120h-12l-1-1-1-23v-78l-4 2-8 10-15 22-10 14-6 10-4-2-9-10-16-23-10-15-7-10-1 103-1 1h-11l-2-1-1-13v-106z" fill="#0A0B0B"/>
<path transform="translate(239,949)" d="m0 0h26l23 2 14 4 11 7 7 6 7 10 5 12 2 8v22l-3 14-7 13-5 6-13 10-12 5-13 3-10 1h-46l-2-2-1-15v-102l1-2zm4 13-5 1-1 2v93l5 2h17l17-1 14-3 12-6 6-5 7-10 3-9 1-8v-19l-3-12-6-9-7-7-10-5-6-2-20-2z" fill="#040404"/>
<path transform="translate(665,950)" d="m0 0h8l7 3 10 11 9 11 9 10 10 13 9 11 12 14 12 16 7 9 3 3 1-100h12l2 1v116l-3 5h-9l-6-4-7-7-9-11-13-16-9-12-9-11-14-17-9-12-11-13-1 102h-11l-2-3v-118z" fill="#070707"/>
<path transform="translate(1219,950)" d="m0 0h48l15 2 8 4 8 8 6 12 1 10-2 9-6 9-7 6-11 6 3 7 12 20 13 20 4 7-1 3h-9l-5-3-8-9-13-21-12-19-7-2-27-1-1 53-1 1h-10l-2-2-1-11v-106l1-2zm12 12-2 1-1 23v19l4 1h19l19-1 9-3 6-4 4-6v-16l-5-8-8-4-18-2z" fill="#050505"/>
<path transform="translate(897,701)" d="m0 0h5l1 4-4 6-9 10-20 20-7 8-2 4 8 12 16 21 14 19 8 11 3 5v4h-10l-8-6-13-16-14-19-14-21-5 3-13 13-7 6-1 4-1 34-1 1h-11l-1-1-1-21v-98h14l1 66 13-13 7-8 16-17 25-25 8-5z" fill="#040404"/>
<path transform="translate(1768,950)" d="m0 0h75l2 4-1 7-1 1-60 1-1 39h55l1 1v10l-4 1h-52v46h62l3 2v9l-2 1h-76l-1-1-1-12v-108z" fill="#040404"/>
<path transform="translate(1425,948)" d="m0 0 7 1 5 5 14 30 24 56 10 26 1 7h-7l-6-3-8-16-9-21-1-1-14-1h-41l-3 3-11 26-5 10-6 3-6-1-1-4 14-35 11-25 13-31 10-21 5-6zm1 19-4 4-15 37-4 9v2l5 1h42l-1-6-11-27-7-16-3-4z" fill="#090A0A"/>
<path transform="translate(101,948)" d="m0 0 7 1 5 6 16 35 9 22 12 28 11 27v6h-7l-6-3-6-12-11-25-3-2h-53l-3 3-11 25-6 12-1 1h-10l-1-3 19-47 9-20 11-26 10-21 5-5zm0 19-5 7-18 43v3l44 1 3-1-1-5-14-35-6-13z" fill="#080808"/>
<path transform="translate(955,947)" d="m0 0h18l14 3 12 6 2 3v5l-2 2-9-1-21-5h-13l-9 3-5 4-3 8v8l3 6 5 4 10 4 27 6 12 6 8 8 4 8 2 7v9l-2 9-6 10-8 7-12 6-13 2h-11l-16-2-13-4-6-4-2-4 1-6 3-2 15 5 17 3h16l11-4 6-5 4-8v-11l-4-9-8-5-15-4-21-5-10-5-8-8-4-10v-15l5-10 5-5 10-7z" fill="#0A0A0A"/>
<path transform="translate(1006,729)" d="m0 0h15l14 3 6 4 6 7 3 10 1 8 1 47 2 4 8 6 1 6-3 2h-10l-5-2-5-9-6 2-10 5-16 4-15 1-11-2-6-4-7-8-3-8v-14l4-10 5-4 7-3 19-3 35-3v-11l-3-9-5-4-7-2h-13l-23 3-9 2-3-3v-6l5-5 17-3zm25 49-45 5-5 3-2 7v7l3 8 5 5 3 2h19l15-4 10-6 3-5v-17l-2-5z" fill="#070707"/>
<path transform="translate(1941,947)" d="m0 0h20l16 4 8 4 2 4v7l-5 1-19-6-6-1h-15l-8 3-5 5-3 5-1 8 3 7 7 6 16 5 19 4 14 7 7 7 5 11v17l-4 10-9 10-10 6-14 3h-22l-17-3-8-4-4-5 1-9 9 2 13 4 11 2h19l10-4 6-5 4-9v-10l-3-8-9-6-9-3-23-5-12-5-8-7-4-6-3-11 1-11 4-8 5-6 11-7z" fill="#070707"/>
<path transform="translate(1155,730)" d="m0 0h29l11 4 5 4 5 10 2 12 1 47 2 5 8 6 2 3-1 4h-16l-5-6-1-5-16 8-18 4h-22l-8-4-7-8-4-11v-11l3-9 5-6 7-3 19-3 36-3v-11l-3-10-6-4-16-1-22 2-10 2-5-1v-8l5-4 9-2zm34 48-41 4-8 2-3 3-1 2v13l3 8 8 5h18l12-3 12-6 4-4v-23z" fill="#090909"/>
<path transform="translate(698,729)" d="m0 0h13l10 2 8 4 5 4 6 10 3 8 1 7v59l-4 1h-7l-3-1-1-57-1-9-5-9-6-4-7-2h-14l-9 2-10 6-6 8-2 4-1 8-1 46v7l-7 1-6-1-1-3v-88l2-2 6 1 4 3 1 3v7l14-10 11-4z" fill="#040404"/>
<path transform="translate(1555,950)" d="m0 0h66l3 2v6l-2 3-35 2-2 108-1 1h-10l-3-2-1-107-35-1-3-3 1-6 2-2z" fill="#070707"/>
<path transform="translate(1107,950)" d="m0 0h43l3 3-1 7-1 1-35 2-1 80-1 28-1 1h-11l-2-2-1-107-34-1-4-4 2-6 1-1z" fill="#040404"/>
<path transform="translate(1430,708)" d="m0 0 3 1v21h12l23 1 5 4-1 5-2 2-33 1-3 1v51l2 12 5 5 6 2h12l13-4 4 1v8l-4 4-10 3-15 1-11-2-9-6-4-6-3-10-1-9v-51l-10-1-3-2 1-5 12-12 6-10z" fill="#050505"/>
<path transform="translate(1324,729)" d="m0 0 12 1 10 4 4 4 1 7-3 3-9-2-10-4h-11l-11 4-8 6-5 5-2 8-2 58-9 1-3-2-1-8v-82l1-1h8l2 2 2 10 14-9 12-4z" fill="#060606"/>
<path transform="translate(581,951)" d="m0 0h14v121h-11l-3-1-1-20v-45z" fill="#070707"/>
<path transform="translate(842,951)" d="m0 0h15l1 5-1 115-1 1h-10l-3-1-1-19z" fill="#050505"/>
<path transform="translate(1685,951)" d="m0 0h12l3 1v28l-1 91-3 1h-9l-1-1-1-10z" fill="#0A0A0A"/>
<path transform="translate(571,704)" d="m0 0h12l3 2-1 117-3 1h-9l-2-1-1-118z" fill="#060606"/>
<path transform="translate(1324,729)" d="m0 0 12 1 10 4 4 4 1 7-3 3-9-2-10-4h-11l-11 4-8 6-5 5-2 8-2 58h-2v-65l1-18 1 3 14-9 12-4z" fill="#080808"/>
<path transform="translate(1243,958)" d="m0 0h24l6 2-3 1h-3l3 2h-41v23l-1 19h23l24-1-4 3-3 1h-41l1 10h1l-1 53-4 1 2-1-1-15v-63l1-25 2-6 7-3z" fill="#3D3D3E"/>
<path transform="translate(511,951)" d="m0 0 3 1v120h-4z" fill="#3F4041"/>
<path transform="translate(1768,950)" d="m0 0h3v27l-1 79-1 15h-1l-1-12v-108z" fill="#333334"/>
<path transform="translate(1100,965)" d="m0 0 2 1 1 38 1 21v46h9v1h-11l-2-2z" fill="#303132"/>
<path transform="translate(223,951)" d="m0 0 2 1v118l46 1v1h-46l-2-2-1-15v-102z" fill="#8C8D8E"/>
<path transform="translate(993,772)" d="m0 0 8 1 35 4 4 2 3 16-1 2-2-1-1-8-3-5-1-4-24 2-22 2 3-2 5-2-7-3-8-1v-1z" fill="#4E4F50"/>
<path transform="translate(1289,740)" d="m0 0 1 3 5-2-3 24-2 58h-2v-65z" fill="#414243"/>
<path transform="translate(842,951)" d="m0 0h15v1h-12v65l-1 54h-1l-1-19z" fill="#59595A"/>
<path transform="translate(1782,958)" d="m0 0h62l-1 4h-60z" fill="#303132"/>
<path transform="translate(1432,739)" d="m0 0 2 4-1 51-2-4-2-9v-36l2-2z" fill="#3A3B3C"/>
<path transform="translate(254,958)" d="m0 0h14l14 3 11 4-3 1-10-2-13-1h-27v-2l7-2z" fill="#515252"/>
<path transform="translate(1114,965)" d="m0 0h1v78l-1 28h-1l-1-36z" fill="#3F4041"/>
<path transform="translate(810,704)" d="m0 0h2l1 36-1 3-1 59h-1z" fill="#3F4041"/>
<path transform="translate(1161,774)" d="m0 0 13 1 15 3v1l-31 3h-4v-2l7-4z" fill="#454647"/>
<path transform="translate(1243,958)" d="m0 0h24l6 2-3 1h-3l3 2h-40l1-3z" fill="#414243"/>
<path transform="translate(328,982)" d="m0 0 2 2 4 14v22l-3 14-7 13-5 4 2-5 8-14 2-7v-29l-3-11z" fill="#565758"/>
<path transform="translate(859,751)" d="m0 0 4 5 9 13 16 21 3 4-1 2-9-10-13-18-9-10v-2l-3-1 2-1z" fill="#3D3E3F"/>
<path transform="translate(655,730)" d="m0 0 6 1 2 2-7 1-1 2-1 84h-1v-88z" fill="#3C3D3E"/>
<path transform="translate(992,1049)" d="m0 0 1 2-7 8-6 4-4 1h-16l-7-2 4-1h16l11-4 6-5z" fill="#6E6E6F"/>
<path transform="translate(1061,956)" d="m0 0 5 1 27 1v1l-13 1 6 1v1h-21l-4-4z" fill="#3F4041"/>
<path transform="translate(1623,952)" d="m0 0h1v6l-2 3-20 1h-13l2-1v-2l30-1z" fill="#404142"/>
<path transform="translate(741,764)" d="m0 0h3v59h-1l-1-44-1-7z" fill="#3F4041"/>
<path transform="translate(1e3 1021)" d="m0 0 2 1 3 10v9l-2 9-3 4 1-8v-19z" fill="#414243"/>
<path transform="translate(236,1068)" d="m0 0h55v1l-10 2h-5v-1l-40-1z" fill="#414243"/>
<path transform="translate(968,785)" d="m0 0h1l1 28-2-2-2-6v-14z" fill="#8F8F90"/>
<path transform="translate(1e3 739)" d="m0 0h16l5 2-3 1h-13l-16 1 2-2z" fill="#424344"/>
<path transform="translate(1430,708)" d="m0 0 3 1v17h-1l-2-7-4-4 1-4z" fill="#0D0D0D"/>
<path transform="translate(957,1012)" d="m0 0 12 1 16 4 7 6 1 4-7-6-10-4-19-4z" fill="#424344"/>
<path transform="translate(1038,734)" d="m0 0 7 6 4 9 1 10-10-20z" fill="#48494A"/>
<path transform="translate(1036,778)" d="m0 0 4 1 3 16-1 2-2-1-1-8-3-5z" fill="#404142"/>
<path transform="translate(461,999)" d="m0 0 1 2-3 5 1 6 4 5-3 1-7-10 1-3 5-5z" fill="#454647"/>
<path transform="translate(311,961)" d="m0 0 8 6 6 8 3 5-1 2-9-12-7-7z" fill="#4C4C4D"/>
<path transform="translate(330,1031)" d="m0 0 1 3-7 13-5 4 2-5z" fill="#3F4041"/>
<path transform="translate(1270 1e3)" d="m0 0h5l-4 3-3 1h-7v-1l-10-1v-1z" fill="#393A3B"/>
<path transform="translate(1433,730)" d="m0 0h12l-2 1 5 9h-3l-6-8-6-1z" fill="#5E5F60"/>
<path transform="translate(1909,1053)" d="m0 0 9 2 13 4v1l-9-1-12-3z" fill="#656666"/>
<path transform="translate(1254,960)" d="m0 0 13 1 3 2h-12l-10-1v-1z" fill="#353636"/>
<path transform="translate(762,1045)" d="m0 0 3 3 3 5 3 3-1 2-9-6z" fill="#3F4041"/>
<path transform="translate(850,758)" d="m0 0 2 3-1 2-5 3-6 5 2-4z" fill="#3F4041"/>
<path transform="translate(1043,806)" d="m0 0h1l-1 10-2 1-2-5z" fill="#3F4041"/>
<path transform="translate(1197,736)" d="m0 0 5 5 3 7-1 4-6-12z" fill="#454647"/>
<path transform="translate(730,737)" d="m0 0 4 2 6 10h-3l-6-9z" fill="#3A3B3C"/>
<path transform="translate(1138,732)" d="m0 0 4 1-12 6 2-4z" fill="#B4B5B5"/>
<path transform="translate(1426,712)" d="m0 0 3 1 4 4v9h-1l-2-7-4-4z" fill="#626364"/>
<path transform="translate(1272,1012)" d="m0 0 4 2v2l3 1 2 6h-2l-7-9z" fill="#5C5D5E"/>
<path transform="translate(1134,790)" d="m0 0h2l1 14-2-1-1-5-2-2z" fill="#555556"/>
</svg>
