<svg viewBox="0 0 2048 1133" width="262" height="145" xmlns="http://www.w3.org/2000/svg">
<path transform="translate(1078,53)" d="m0 0 4 1 4 9 8 21 16 38 17 42 18 44 18 43 14 34 51 123 16 39 14 33 10 26 11 26 1 5-19 1h-87l-39-1-4-5-15-36-3-6v-2h-201v47l-1 2-87 1h-50l-5-1v-375l2-2h140l1 286 4-6 11-25 26-62 11-27 13-31 20-49 12-28 18-44 16-39 17-42 14-32zm0 42-11 26-31 74-13 32 1 5 4 8 8 20 18 43 16 39 14 34 16 39 18 44 6 11 2 2h108l-7-20-19-47-18-44-20-49-16-39-12-29-19-46-15-37-16-38-10-24-2-4zm-284 79-9 1v112l1 237h91l7-2 5-8 4-15 1-8 1-22-1-294-5-1zm220 78-6 12-18 43-15 36-19 46-15 36-11 27-8 18v2h183l-9-26-19-46-18-43-16-39-15-37-6-15-7-14zm118 235-1 3 10 26 4 6 1 1h110l-1-6-10-25-4-5z" fill="#000"/>
<path transform="translate(405,954)" d="m0 0h15l6 5 13 19 19 28 2 4 5-4 16-24 14-19 6-7 4-2h13l2 3v118l-3 1h-8l-2-1-1-6v-96l-6 5-11 15-8 12-11 15-7 11-4-1-10-12-10-14-8-12-14-20-1 103-1 1h-9l-4-2-1-28v-88l1-3z" fill="#000"/>
<path transform="translate(669,954)" d="m0 0h11l7 4 11 13 12 14 12 15 11 14 12 14 14 19 7 8v-100l1-1h12l2 1v118l-2 3h-11l-6-4-10-11-11-14-10-12-12-16-13-15-10-13-9-11-5-6v66l-1 36h-9l-3-1-1-7v-113z" fill="#000"/>
<path transform="translate(244,953)" d="m0 0h30l22 2 15 5 10 7 8 8 6 10 5 14 1 7v14l-3 16-7 14-8 9-13 9-15 5-12 2-14 1h-34l-5-2-1-12v-107l2-1zm2 13-2 1v95l1 1 7 1 27-1 13-2 11-4 8-6 5-5 5-6 4-13 1-18-2-14-6-12-8-8-12-6-8-2-9-1z" fill="#000"/>
<path transform="translate(1219,954)" d="m0 0h55l14 3 9 6 6 8 4 9 1 9-2 9-5 8-7 7-12 7 3 8 15 23 13 20 1 5h-12l-8-7-10-15-17-28-2-2-4-1-18-1h-11v24l-1 29-9 1-4-2-1-12v-107zm15 12-2 1-1 16v26l1 1h25l16-1 9-3 7-5 3-5 1-5v-8l-4-9-5-4-9-3-9-1z" fill="#000"/>
<path transform="translate(901,706)" d="m0 0h7l1 3-4 6-11 11-7 8-7 6-7 8-7 7-1 3 10 14 11 14 27 36 2 4v4h-9l-6-3-8-8-13-17-11-15-7-11-6-9-10 9-8 8-6 5-1 3-1 36-1 1h-12l-1-1-1-97v-21l5-2h10l1 67 7-8 7-7 7-8 7-7 7-8 24-24 7-5z" fill="#000"/>
<path transform="translate(1426,952)" d="m0 0h7l4 2 8 16 8 17 15 35 10 24 11 28v2h-10l-5-4-7-15-8-19-1-3h-57l-12 27-6 12-3 2h-9l-1-3 8-21 11-26 10-23 11-26 8-16 5-7zm2 20-4 4-14 34-4 9v4l30 1h16l1-2-15-36-7-14z" fill="#000"/>
<path transform="translate(107,952)" d="m0 0h7l5 4 16 35 10 24 11 25 13 34-1 3h-7l-5-3-5-8-12-28-2-3h-56l-4 8-11 26-4 6-1 1h-10l1-8 12-29 8-19 12-28 13-29 5-8zm2 18-6 10-15 35-2 5v3l44 1 2-1-3-10-12-30-6-13z" fill="#000"/>
<path transform="translate(1768,954)" d="m0 0h77l1 2v7l-2 3h-60v39l54 1 1 1v10h-56v46l64 1 1 1v10l-46 1h-31l-2-1-1-16z" fill="#000"/>
<path transform="translate(1940,951)" d="m0 0h23l13 3 10 5 2 4v6l-2 2-8-1-15-5-5-1h-16l-9 4-5 6-2 5v8l5 8 10 5 18 4 15 4 11 6 7 8 4 9 1 8-2 15-6 9-7 7-12 6-11 2h-20l-17-3-10-4-4-5v-6l2-3 7 1 16 5 16 2 13-1 10-4 5-5 4-7v-12l-3-7-6-5-11-4-23-5-13-5-8-7-5-10-1-3v-14l5-10 4-5 10-7z" fill="#000"/>
<path transform="translate(1006,734)" d="m0 0h22l11 3 8 5 4 6 3 11 1 12v42l5 5 7 5 1 5-4 3h-9l-7-3-4-8-16 7-18 4h-21l-8-4-7-8-4-9v-15l3-8 7-6 9-3 24-3 28-2-1-13-4-8-6-4-3-1h-20l-23 4-6 1-2-3 1-7 5-4 8-2zm26 49-38 4-8 3-2 4v14l3 6 5 4 8 2 14-1 12-3 11-6 3-3 1-3v-19l-1-2z" fill="#000"/>
<path transform="translate(957,951)" d="m0 0h21l16 4 10 5 2 6-2 4h-7l-17-5-7-1h-13l-9 3-5 4-3 7v9l3 7 9 5 16 4 17 4 12 6 8 8 5 10 1 5v9l-2 9-6 9-7 7-14 7-5 1h-26l-18-4-8-4-2-3v-8l2-2 6 1 16 5 15 2h10l11-3 7-5 5-8v-12l-3-8-6-5-12-4-26-6-12-6-7-8-4-9-1-10 3-10 6-8 8-7 9-4z" fill="#000"/>
<path transform="translate(1172,734)" d="m0 0 16 1 10 4 7 6 4 11 1 9 1 50 11 7 2 3-1 4-5 2-12-1-4-5-2-4-6 1-11 5-12 3-7 1h-18l-8-3-8-8-4-9-1-5v-8l3-10 3-5 8-4 20-3 38-3-3-17-3-6-8-3h-20l-22 3-7 1-2-3 1-6 3-3 6-2 16-2zm18 49-34 3-11 2-5 5-1 10 2 9 5 5 4 2h18l16-4 10-6 2-2 1-4v-16l-1-4z" fill="#000"/>
<path transform="translate(701,734)" d="m0 0h17l13 4 9 7 6 11 2 6 1 9v57l-4 1h-8l-2-1-1-57-2-12-4-6-8-5-3-1h-19l-9 3-8 6-6 8-2 16-1 48h-13l-1-8v-80l1-5 9 1 2 2 2 10 12-9 11-4z" fill="#000"/>
<path transform="translate(1538,954)" d="m0 0h86l2 2v6l-2 3-36 1-1 110h-13l-1-1-1-26v-82l-35-1-3-2 1-9z" fill="#000"/>
<path transform="translate(1069,954)" d="m0 0h86l2 3-1 7-1 1-35 2-1 1-1 107-1 1-12-1-1-1-1-31v-72l-1-4-33-1-3-1-1-7 1-3z" fill="#000"/>
<path transform="translate(1433,712)" d="m0 0 3 2-1 21 37 1 3 3-1 6-1 2-37 1v43l1 14 3 9 8 4h15l10-4h5l1 2v7l-5 5-11 3h-19l-9-3-7-6-5-9-2-14v-52h-11l-3-3 2-5 9-7 3-3 5-10z" fill="#000"/>
<path transform="translate(1321,734)" d="m0 0h14l13 4 5 5 1 7-3 3-7-1-8-4-4-1h-13l-10 4-10 8-3 4-1 4-1 13-1 48h-12l-1-3v-89l1-1 9 1 2 6 1 7 13-10 10-4z" fill="#000"/>
<path transform="translate(576,708)" d="m0 0h8l7 1v119l-1 1h-13l-1-1z" fill="#000"/>
<path transform="translate(847,954)" d="m0 0 15 1v119l-2 2h-7l-5-1-1-4z" fill="#000"/>
<path transform="translate(1686,955)" d="m0 0h15v97l-1 23h-13l-1-14z" fill="#000"/>
<path transform="translate(586,954)" d="m0 0h14v121h-13l-1-4z" fill="#000"/>
</svg>
