<?xml version="1.0" encoding="UTF-8"?>
<svg version="1.1" viewBox="0 0 2048 1171" width="278" height="159" xmlns="http://www.w3.org/2000/svg">
<path transform="translate(0)" d="m0 0h2048v1171h-2048z" fill="#FFFFFF"/>
<path transform="translate(1071,93)" d="m0 0 2 3 11 29 13 32 19 47 20 49 15 37 19 47 16 39 12 29 19 46 28 68 15 38v3l-13 1h-111l-12-2-5-11-12-29-4-7v-2h-186l-3 1-3 9-2 13-2 27-3 1h-108l-21-1v-359l61-1h70l1 2 1 84v101l-1 37v61l1 3 4-9 5-14 3-4 5-15 16-39 16-38 7-17 11-27 16-39 20-49 18-44 15-36 11-27 11-26 4-10z" fill="#1B5E4A"/>
<path transform="translate(789,210)" d="m0 0h98l6 1 1 2v297l-2 18-5 17-1 2-6 1h-90l-2-2-1-21-1-74v-238z" fill="#000000"/>
<path transform="translate(1069,131)" d="m0 0h2l7 14 14 33 12 28 15 36 12 29 11 27 18 44 16 39 38 95 8 21-1 2-1-1-107-1-3-4-15-37-15-36-11-26-14-34-11-27-17-42-10-26 1-9 8-21 13-31 13-30 16-41z" fill="#000000"/>
<path transform="translate(1009,281)" d="m0 0 2 3 8 16 13 32 10 23 11 27 18 45 19 47 9 21v2h-176l-3-1 1-5 8-20 11-25 16-40 17-42 14-33 13-31 8-18z" fill="#000000"/>
<path transform="translate(281,962)" d="m0 0h44l12 3 9 6 7 8 4 8 2 10v20l-3 12-6 9-9 8-12 5-11 2-11 1h-25l-1-1-1-42v-19z" fill="#000000"/>
<path transform="translate(1201,951)" d="m0 0h54l13 4 8 7 6 12 1 4v9l-3 9-7 8-12 7h-3l6 12 15 23 9 15 1 5-3 1-8-2-6-5-11-17-14-22-2-7-32 1-1 49-1 1h-12v-70l1-43z" fill="#000000"/>
<path transform="translate(998,744)" d="m0 0h24l10 3 6 4 5 9 2 10 1 46 3 5 8 7 1 4-2 2-4 1h-9l-4-4-2-7-3-2-11 7-16 5-10 1-11-1-10-4-5-5-4-8-1-4v-9l3-10 4-5 11-4 20-3 30-3-2-12-4-8-6-3-5-1h-14l-14 2-8 2h-6l-3-3v-5l5-3 13-3z" fill="#000000"/>
<path transform="translate(1144,744)" d="m0 0h25l12 4 7 8 3 8 1 6 1 48 4 5 5 3 2 3-1 5h-15l-3-7-2-5-5 2-9 5-11 4-5 1h-20l-10-4-7-8-3-9v-10l3-10 5-5 15-4 42-5h3l-3-15-4-6-5-2h-28l-18 3-4-4 1-5 7-3z" fill="#000000"/>
<path transform="translate(1395,950)" d="m0 0h8l5 5 6 12 11 26 15 35 12 29 2 10-9-1-5-6-9-21-6-12-4-1h-21l-29 1-14 32-5 7h-9l1-7 29-67 13-30 5-10z" fill="#000000"/>
<path transform="translate(152,949)" d="m0 0 7 1 5 5 5 10 30 70 10 25 2 6h-10l-4-4-9-21-5-12-1-2-28-1h-27l-3 9-10 23-6 8-4 1-6-2 5-12 14-33 18-41 10-23 5-6z" fill="#000000"/>
<path transform="translate(436,950)" d="m0 0h9l5 3 6 7 21 32 8 11v2l5-5 19-28 12-16 5-5 13-1 2 2 1 10-1 103h-12v-101l-4 4-7 11-15 22-14 20-4 2-8-10-18-27-12-17-3-3-1 99-10 1-2-1v-114z" fill="#000000"/>
<path transform="translate(1209,508)" d="m0 0h17l5 7 11 28 1 4-4 1-103 1-4-2-8-19-5-14v-5z" fill="#000000"/>
<path transform="translate(683,950)" d="m0 0h8l7 3 10 12 11 14 11 13 7 9 14 17 9 12 11 14 2 2 1-60 1-35h11l1 1v112l-1 2h-8l-6-3-8-8-9-11-11-14-14-18-9-11-11-14-12-15-4-4v83l-1 14h-11v-114z" fill="#000000"/>
<path transform="translate(273,951)" d="m0 0h53l16 4 10 6 9 9 7 12 3 11 1 8v14l-2 12-7 14-7 8-9 6-10 5-14 4-9 1h-45v-113zm8 11-1 30v19l1 42 1 1h25l18-2 14-5 8-6 6-7 4-8 2-9v-20l-3-12-5-9-7-7-10-5-9-2z" fill="#000000"/>
<path transform="translate(901,718)" d="m0 0 5 1-1 5-20 20-7 8-7 7-4 5 1 4 10 14 12 16 10 13 8 11 6 9v2l-2 1-9-1-8-7-21-28-13-19-3-4-4 2-8 7-11 11-1 2-2 35-1 1h-11l-1-113 2-1h11l1 41v22l5-4 7-8 9-10 25-25 7-8 7-6z" fill="#000000"/>
<path transform="translate(1719,951)" d="m0 0h71v7l-1 3-15 1h-43l1 37h49v8l-1 2-3 1-45 1v42l59 1 2 3-1 7-3 1h-70z" fill="#000000"/>
<path transform="translate(961,947)" d="m0 0 14 1 15 5 6 3 4 4-2 4-1 1-9-1-15-4h-19l-8 4-5 6-1 3v8l3 7 4 4 13 4 23 5 14 7 6 9 3 10v13l-3 9-9 10-10 5-10 3-7 1-16-1-17-4-8-4-2-3 1-7 1-2 9 3 14 4 7 1h15l11-3 8-6 3-6v-12l-4-9-6-4-38-10-8-4-6-7-4-11v-9l3-9 4-6 9-7 11-4z" fill="#000000"/>
<path transform="translate(1881,948)" d="m0 0h18l12 3 10 5 5 6-2 3-8-1-16-4-7-1h-8l-10 3-6 5-3 7v7l3 7 6 5 15 4 19 4 12 6 7 7 4 9 1 4v10l-4 11-6 8-8 6-12 4-6 1h-18l-18-4-8-3-2-3v-8l5-1 15 5 13 2h13l13-4 6-5 3-7v-12l-4-8-8-5-16-4-17-4-10-5-7-8-4-11v-7l3-10 7-8 8-6z" fill="#000000"/>
<path transform="translate(673,744)" d="m0 0h8l2 5v9l16-10 8-3 4-1h21l10 4 6 5 4 6 4 11 1 7v55h-12l-1-50-2-15-4-7-6-4-4-1h-15l-10 3-10 6-6 6-1 3-1 21-1 38h-12v-67z" fill="#000000"/>
<path transform="translate(1098,950)" d="m0 0h13l29 1 1 5-2 5-2 1-31 1-1 101-6 2h-7l-1-103-28-1-6-2-1-2v-6l2-1z" fill="#000000"/>
<path transform="translate(1504,951)" d="m0 0h77l2 4-2 5-1 1-8 1h-24l-1 102-1 1h-12l-1-102-28-1-6-2-2-4v-4z" fill="#000000"/>
<path transform="translate(1214,962)" d="m0 0h39l10 3 5 6 2 5v14l-7 8-10 4-11 1h-29l-1-1v-39z" fill="#000000"/>
<path transform="translate(1401,723)" d="m0 0 3 1 1 20 25 1 10 1 2 4-4 5-22 1-10 1-1 1v47l2 11 1 4 10 3 15-1 4-1h7l1 1v6l-6 4-10 2h-16l-9-3-7-6-4-10-1-5v-54h-10l-3-2v-6l12-9 8-14z" fill="#000000"/>
<path transform="translate(1021,789)" d="m0 0h12l1 3v12l-1 7-7 6-12 5-10 2h-15l-6-3-4-6-1-11 3-7 6-3 26-4z" fill="#000000"/>
<path transform="translate(1259,744)" d="m0 0h7l1 1 1 13 19-11 10-3h13l11 4 5 4 1 7-2 2-5-1-8-4-4-1h-12l-11 4-13 11-1 2-1 60h-12v-39z" fill="#000000"/>
<path transform="translate(1168,789)" d="m0 0h12v22l-7 6-12 5-11 2h-15l-5-3-4-5-1-10 2-8 3-3 14-3z" fill="#000000"/>
<path transform="translate(851,951)" d="m0 0h11l1 1v113h-12z" fill="#000000"/>
<path transform="translate(605,951)" d="m0 0h12v113l-1 1h-11z" fill="#000000"/>
<path transform="translate(600,719)" d="m0 0 7 1 1 1-1 111h-12v-91l1-21z" fill="#000000"/>
<path transform="translate(1642,952)" d="m0 0h12v112l-1 1h-12v-81z" fill="#000000"/>
<path transform="translate(1397,963)" d="m0 0 3 1 11 25 10 23v4l-45 1 1-6 11-27 8-20z" fill="#000000"/>
<path transform="translate(153,964)" d="m0 0 4 2 8 17 10 24 3 9h-46l1-5 9-21 10-25z" fill="#000000"/>
</svg> 